<svg width="213" height="209" viewBox="0 0 213 209" fill="none" xmlns="http://www.w3.org/2000/svg">
<path d="M47.52 53.6668C51.52 60.1668 68.02 78.1668 68.02 78.1668C68.02 78.1668 83.52 63.1668 84.52 60.1668C85.52 57.1668 86.0589 55.6534 86.02 52.6668C85.9725 49.0193 86.02 48.1668 83.52 43.6668C81.02 39.1668 61.02 16.1668 61.02 16.1668C61.02 16.1668 85.5 38 88.02 39.1668C90.54 40.3335 93.04 42.3335 98.02 42.1668C103 42 104 42.1668 108.02 39.1668C112.04 36.1668 151.02 0.666755 151.02 0.666755C151.02 0.666755 78.02 -0.833435 73.52 0.666755C69.02 2.16695 67.2089 2.64609 63.52 4.66676C59.7176 6.74962 57.5636 8.07912 54.52 11.1668C51.0604 14.6765 49.557 17.1792 47.52 21.6668C44.8763 27.491 44.02 37.6668 44.02 37.6668C44.02 37.6668 43.52 47.1668 47.52 53.6668Z" fill="#05A2E6"/>
<path d="M148.082 52.5806C143.92 46.183 126.974 28.6025 126.974 28.6025C126.974 28.6025 111.855 43.9866 110.931 47.0107C110.006 50.0348 109.505 51.5612 109.619 54.546C109.758 58.1911 109.732 59.0446 112.344 63.4804C114.956 67.9163 135.527 90.4074 135.527 90.4074C135.527 90.4074 110.507 69.1951 107.958 68.0919C105.41 66.9887 102.861 65.0521 97.8863 65.3437C92.9121 65.6353 91.9082 65.4937 87.9647 68.5936C84.0213 71.6935 45.944 108.16 45.944 108.16C45.944 108.16 118.959 107.829 123.42 106.216C127.881 104.603 129.679 104.079 133.316 101.966C137.065 99.7889 139.185 98.4058 142.15 95.2428C145.521 91.6474 146.961 89.1077 148.885 84.5705C151.381 78.6818 151.982 68.4877 151.982 68.4877C151.982 68.4877 152.244 58.9782 148.082 52.5806Z" fill="#05A2E6"/>
<path d="M16.384 165.64C13.6107 165.64 10.9867 165.427 8.512 165C6.03733 164.531 3.92533 163.891 2.176 163.08V153.16C4.096 154.056 6.22933 154.781 8.576 155.336C10.9227 155.891 13.12 156.168 15.168 156.168C17.3013 156.168 18.9013 155.997 19.968 155.656C21.0773 155.272 21.632 154.44 21.632 153.16C21.632 152.264 21.312 151.56 20.672 151.048C20.0747 150.536 19.1147 150.067 17.792 149.64C16.512 149.213 14.8267 148.68 12.736 148.04C9.96267 147.144 7.76533 146.163 6.144 145.096C4.52267 144.029 3.34933 142.728 2.624 141.192C1.94133 139.656 1.6 137.779 1.6 135.56C1.6 131.507 3.02933 128.435 5.888 126.344C8.78933 124.211 13.0773 123.144 18.752 123.144C21.0133 123.144 23.3387 123.336 25.728 123.72C28.16 124.104 30.1227 124.531 31.616 125V134.984C29.6107 134.173 27.6907 133.597 25.856 133.256C24.0213 132.915 22.2933 132.744 20.672 132.744C18.7947 132.744 17.1947 132.893 15.872 133.192C14.5493 133.491 13.888 134.259 13.888 135.496C13.888 136.563 14.4427 137.352 15.552 137.864C16.704 138.333 18.7307 138.952 21.632 139.72C25.0027 140.616 27.5627 141.704 29.312 142.984C31.104 144.264 32.32 145.757 32.96 147.464C33.6 149.128 33.92 151.027 33.92 153.16C33.92 156.915 32.4693 159.944 29.568 162.248C26.6667 164.509 22.272 165.64 16.384 165.64ZM42.22 165V123.784H52.46L68.012 145.608V123.784H80.044V165H69.74L54.252 143.24V165H42.22ZM89.6225 165V123.784H120.855V133H101.655V139.72H118.487V149.064H101.655V155.784H120.855V165H89.6225ZM127.245 165V158.984L145.165 133H128.205V123.784H160.973V130.056L143.245 155.784H161.357V165H127.245ZM166.46 165L182.268 123.784H195.004L210.812 165H198.268L194.812 156.232H182.396L179.004 165H166.46ZM183.996 147.592H193.212L188.604 135.496L183.996 147.592Z" fill="#004461"/>
<path d="M27.416 203L23.672 190.76H25.616L28.496 201.248H28.016L31.472 190.76H33.032L36.512 201.248H36.032L38.888 190.76H40.736L36.992 203H35.432L31.976 192.752H32.48L28.976 203H27.416ZM48.1001 203.24C46.9321 203.24 45.9001 202.968 45.0041 202.424C44.1081 201.864 43.4041 201.104 42.8921 200.144C42.3801 199.184 42.1241 198.08 42.1241 196.832C42.1241 195.584 42.3721 194.488 42.8681 193.544C43.3801 192.584 44.0921 191.84 45.0041 191.312C45.9161 190.784 46.9641 190.52 48.1481 190.52C49.2841 190.52 50.2681 190.768 51.1001 191.264C51.9481 191.76 52.5961 192.456 53.0441 193.352C53.5081 194.248 53.7401 195.304 53.7401 196.52C53.7401 196.68 53.7321 196.832 53.7161 196.976C53.7161 197.12 53.7001 197.28 53.6681 197.456H43.5641V195.848H52.4921L51.8681 196.736C51.8681 195.264 51.5401 194.136 50.8841 193.352C50.2441 192.552 49.3321 192.152 48.1481 192.152C46.9321 192.152 45.9481 192.576 45.1961 193.424C44.4601 194.256 44.0921 195.384 44.0921 196.808C44.0921 198.264 44.4601 199.432 45.1961 200.312C45.9481 201.176 46.9481 201.608 48.1961 201.608C48.9801 201.608 49.6681 201.44 50.2601 201.104C50.8521 200.752 51.2841 200.256 51.5561 199.616H53.3801C52.9801 200.736 52.3081 201.624 51.3641 202.28C50.4361 202.92 49.3481 203.24 48.1001 203.24ZM62.6789 203.216C61.5269 203.216 60.5589 202.936 59.7749 202.376C58.9909 201.816 58.4549 201.024 58.1669 200L58.4309 199.952V203H56.6309V185.72H58.5509V193.616L58.2869 193.544C58.5909 192.6 59.1429 191.864 59.9429 191.336C60.7589 190.792 61.7269 190.52 62.8469 190.52C63.9349 190.52 64.8789 190.784 65.6789 191.312C66.4949 191.84 67.1269 192.576 67.5749 193.52C68.0229 194.464 68.2469 195.568 68.2469 196.832C68.2469 198.112 68.0149 199.232 67.5509 200.192C67.0869 201.152 66.4389 201.896 65.6069 202.424C64.7749 202.952 63.7989 203.216 62.6789 203.216ZM62.3909 201.536C63.6069 201.536 64.5589 201.12 65.2469 200.288C65.9349 199.44 66.2789 198.288 66.2789 196.832C66.2789 195.392 65.9349 194.264 65.2469 193.448C64.5589 192.616 63.6069 192.2 62.3909 192.2C61.1749 192.2 60.2149 192.624 59.5109 193.472C58.8069 194.304 58.4549 195.448 58.4549 196.904C58.4549 198.328 58.8069 199.456 59.5109 200.288C60.2149 201.12 61.1749 201.536 62.3909 201.536ZM70.5528 197.384V195.56H78.8568V197.384H70.5528ZM90.9646 203V200.144L91.2046 200.216C90.9006 201.144 90.3406 201.88 89.5246 202.424C88.7246 202.968 87.7646 203.24 86.6446 203.24C85.5406 203.24 84.5726 202.976 83.7406 202.448C82.9246 201.92 82.2846 201.184 81.8206 200.24C81.3726 199.296 81.1486 198.192 81.1486 196.928C81.1486 195.648 81.3806 194.528 81.8446 193.568C82.3086 192.608 82.9566 191.864 83.7886 191.336C84.6206 190.808 85.5966 190.544 86.7166 190.544C87.8686 190.544 88.8366 190.824 89.6206 191.384C90.4046 191.944 90.9406 192.736 91.2286 193.76L90.8446 193.808V185.72H92.7646V203H90.9646ZM87.0046 201.56C88.2366 201.56 89.1966 201.144 89.8846 200.312C90.5886 199.464 90.9406 198.312 90.9406 196.856C90.9406 195.432 90.5886 194.304 89.8846 193.472C89.1806 192.64 88.2206 192.224 87.0046 192.224C85.7886 192.224 84.8366 192.64 84.1486 193.472C83.4606 194.304 83.1166 195.456 83.1166 196.928C83.1166 198.368 83.4606 199.504 84.1486 200.336C84.8366 201.152 85.7886 201.56 87.0046 201.56ZM101.631 203.24C100.463 203.24 99.4313 202.968 98.5353 202.424C97.6393 201.864 96.9353 201.104 96.4233 200.144C95.9113 199.184 95.6553 198.08 95.6553 196.832C95.6553 195.584 95.9033 194.488 96.3993 193.544C96.9113 192.584 97.6233 191.84 98.5353 191.312C99.4473 190.784 100.495 190.52 101.679 190.52C102.815 190.52 103.799 190.768 104.631 191.264C105.479 191.76 106.127 192.456 106.575 193.352C107.039 194.248 107.271 195.304 107.271 196.52C107.271 196.68 107.263 196.832 107.247 196.976C107.247 197.12 107.231 197.28 107.199 197.456H97.0953V195.848H106.023L105.399 196.736C105.399 195.264 105.071 194.136 104.415 193.352C103.775 192.552 102.863 192.152 101.679 192.152C100.463 192.152 99.4793 192.576 98.7273 193.424C97.9913 194.256 97.6233 195.384 97.6233 196.808C97.6233 198.264 97.9913 199.432 98.7273 200.312C99.4793 201.176 100.479 201.608 101.727 201.608C102.511 201.608 103.199 201.44 103.791 201.104C104.383 200.752 104.815 200.256 105.087 199.616H106.911C106.511 200.736 105.839 201.624 104.895 202.28C103.967 202.92 102.879 203.24 101.631 203.24ZM114.314 203.24C112.81 203.24 111.61 202.896 110.714 202.208C109.818 201.504 109.306 200.512 109.178 199.232H111.026C111.138 200.016 111.482 200.616 112.058 201.032C112.634 201.448 113.402 201.656 114.362 201.656C115.21 201.656 115.874 201.496 116.354 201.176C116.834 200.856 117.074 200.4 117.074 199.808C117.074 199.392 116.938 199.032 116.666 198.728C116.394 198.408 115.85 198.144 115.034 197.936L113.066 197.432C111.946 197.144 111.106 196.704 110.546 196.112C109.986 195.504 109.706 194.784 109.706 193.952C109.706 192.896 110.098 192.064 110.882 191.456C111.666 190.832 112.73 190.52 114.074 190.52C115.402 190.52 116.482 190.84 117.314 191.48C118.146 192.12 118.618 193.008 118.73 194.144H116.882C116.77 193.488 116.466 192.984 115.97 192.632C115.474 192.28 114.818 192.104 114.002 192.104C113.218 192.104 112.61 192.256 112.178 192.56C111.746 192.848 111.53 193.264 111.53 193.808C111.53 194.224 111.682 194.584 111.986 194.888C112.306 195.192 112.834 195.448 113.57 195.656L115.49 196.184C116.626 196.488 117.482 196.952 118.058 197.576C118.634 198.2 118.922 198.952 118.922 199.832C118.922 200.904 118.514 201.744 117.698 202.352C116.882 202.944 115.754 203.24 114.314 203.24ZM121.693 203V190.76H123.613V203H121.693ZM121.549 187.976V185.72H123.757V187.976H121.549ZM132.284 208.16C130.828 208.16 129.612 207.816 128.636 207.128C127.676 206.456 127.092 205.56 126.884 204.44H128.708C128.884 205.08 129.276 205.584 129.884 205.952C130.508 206.336 131.348 206.528 132.404 206.528C133.652 206.528 134.596 206.184 135.236 205.496C135.876 204.824 136.196 203.832 136.196 202.52V199.904L136.436 199.952C136.164 200.88 135.62 201.624 134.804 202.184C133.988 202.728 133.02 203 131.9 203C130.828 203 129.884 202.744 129.068 202.232C128.252 201.704 127.62 200.976 127.172 200.048C126.724 199.12 126.5 198.04 126.5 196.808C126.5 195.56 126.732 194.464 127.196 193.52C127.66 192.576 128.308 191.848 129.14 191.336C129.988 190.808 130.972 190.544 132.092 190.544C133.244 190.544 134.204 190.824 134.972 191.384C135.756 191.944 136.276 192.744 136.532 193.784L136.316 193.808V190.76H138.116V202.52C138.116 204.264 137.596 205.64 136.556 206.648C135.516 207.656 134.092 208.16 132.284 208.16ZM132.38 201.344C133.58 201.344 134.532 200.928 135.236 200.096C135.94 199.264 136.292 198.136 136.292 196.712C136.292 195.32 135.94 194.224 135.236 193.424C134.532 192.608 133.58 192.2 132.38 192.2C131.164 192.2 130.204 192.608 129.5 193.424C128.812 194.24 128.468 195.36 128.468 196.784C128.468 198.176 128.82 199.288 129.524 200.12C130.228 200.936 131.18 201.344 132.38 201.344ZM141.967 203V190.76H143.767V193.64H143.887V203H141.967ZM150.727 203V194.984C150.727 194.056 150.495 193.36 150.031 192.896C149.567 192.432 148.879 192.2 147.967 192.2C147.167 192.2 146.455 192.376 145.831 192.728C145.223 193.08 144.743 193.568 144.391 194.192C144.055 194.816 143.887 195.544 143.887 196.376L143.575 193.472C143.991 192.56 144.623 191.84 145.471 191.312C146.335 190.784 147.311 190.52 148.399 190.52C149.679 190.52 150.703 190.888 151.471 191.624C152.255 192.344 152.647 193.296 152.647 194.48V203H150.727ZM161.35 203.24C160.182 203.24 159.15 202.968 158.254 202.424C157.358 201.864 156.654 201.104 156.142 200.144C155.63 199.184 155.374 198.08 155.374 196.832C155.374 195.584 155.622 194.488 156.118 193.544C156.63 192.584 157.342 191.84 158.254 191.312C159.166 190.784 160.214 190.52 161.398 190.52C162.534 190.52 163.518 190.768 164.35 191.264C165.198 191.76 165.846 192.456 166.294 193.352C166.758 194.248 166.99 195.304 166.99 196.52C166.99 196.68 166.982 196.832 166.966 196.976C166.966 197.12 166.95 197.28 166.918 197.456H156.814V195.848H165.742L165.118 196.736C165.118 195.264 164.79 194.136 164.134 193.352C163.494 192.552 162.582 192.152 161.398 192.152C160.182 192.152 159.198 192.576 158.446 193.424C157.71 194.256 157.342 195.384 157.342 196.808C157.342 198.264 157.71 199.432 158.446 200.312C159.198 201.176 160.198 201.608 161.446 201.608C162.23 201.608 162.918 201.44 163.51 201.104C164.102 200.752 164.534 200.256 164.806 199.616H166.63C166.23 200.736 165.558 201.624 164.614 202.28C163.686 202.92 162.598 203.24 161.35 203.24ZM169.881 203V190.76H171.681V193.88H171.801V203H169.881ZM171.801 196.616L171.489 193.712C171.777 192.672 172.289 191.88 173.025 191.336C173.761 190.792 174.609 190.52 175.569 190.52C175.969 190.52 176.241 190.552 176.385 190.616V192.464C176.305 192.432 176.193 192.416 176.049 192.416C175.905 192.4 175.729 192.392 175.521 192.392C174.305 192.392 173.377 192.76 172.737 193.496C172.113 194.216 171.801 195.256 171.801 196.616Z" fill="#004461"/>
</svg>
